<svg xmlns="http://www.w3.org/2000/svg" viewBox="0 0 180.42 38.68"><defs><style>.cls-1{fill:#fff;}</style></defs><title>Asset 6</title><g id="Layer_2" data-name="Layer 2"><g id="Layer_1-2" data-name="Layer 1"><path class="cls-1" d="M0,2.52a65.8,65.8,0,0,1,11-.8c6.91,0,11.41,1.29,14.84,3.86,3.75,2.79,6.11,7.18,6.11,13.61,0,6.91-2.52,11.68-5.95,14.63-3.8,3.16-9.64,4.66-16.71,4.66A70.11,70.11,0,0,1,0,37.93ZM8.14,31.93a15.32,15.32,0,0,0,2.84.16c7.45.05,12.32-4,12.32-12.64C23.3,11.95,18.91,8,11.84,8a17.38,17.38,0,0,0-3.7.32Z"/><path class="cls-1" d="M37.55,29.68a20.64,20.64,0,0,0,9.05,2.25c3.75,0,5.73-1.55,5.73-3.91s-1.71-3.54-6.05-5c-6-2.14-10-5.46-10-10.71,0-6.16,5.2-10.82,13.66-10.82a21.12,21.12,0,0,1,9.21,1.82L57.37,9.8a16.88,16.88,0,0,0-7.5-1.71c-3.54,0-5.25,1.66-5.25,3.48,0,2.3,2,3.32,6.7,5.09,6.38,2.36,9.32,5.68,9.32,10.77,0,6.05-4.61,11.2-14.52,11.2a23.55,23.55,0,0,1-10.23-2.25Z"/><path class="cls-1" d="M65.73,0h8.14V15.05H74a8.78,8.78,0,0,1,3.21-2.73,9.31,9.31,0,0,1,4.23-1c5.2,0,9.16,3.59,9.16,11.52V38.09H82.44V23.68c0-3.43-1.18-5.79-4.23-5.79a4.3,4.3,0,0,0-4.07,2.89,4.71,4.71,0,0,0-.27,1.77V38.09H65.73Z"/><path class="cls-1" d="M101.13,8.68A4,4,0,0,1,96.9,4.61a4.32,4.32,0,0,1,8.63,0,4,4,0,0,1-4.34,4.07Zm-4,29.41V11.89h8.14v26.2Z"/><path class="cls-1" d="M118.06,27.59c.27,3.38,3.59,5,7.39,5a21.58,21.58,0,0,0,7.23-1.13L133.76,37a24.77,24.77,0,0,1-9.48,1.66c-8.89,0-14-5.14-14-13.34,0-6.64,4.18-14,13.23-14,8.46,0,11.68,6.59,11.68,13.07a19.31,19.31,0,0,1-.27,3.21ZM127.65,22c0-2-.86-5.3-4.55-5.3-3.48,0-4.87,3.16-5.09,5.3Z"/><path class="cls-1" d="M140.08,0h8.14V38.09h-8.14Z"/><path class="cls-1" d="M180.2,0V30.27c0,2.95.11,6.05.21,7.82h-7.23l-.32-3.8h-.16a9.15,9.15,0,0,1-8.2,4.39c-6.21,0-11.2-5.3-11.2-13.45-.05-8.79,5.46-13.93,11.73-13.93,3.27,0,5.73,1.18,6.91,2.95h.11V0Zm-8.14,23a7.09,7.09,0,0,0-.11-1.5,4.85,4.85,0,0,0-4.77-4c-3.75,0-5.63,3.32-5.63,7.45,0,4.39,2.2,7.18,5.57,7.18a4.82,4.82,0,0,0,4.77-3.91,9.58,9.58,0,0,0,.16-1.82Z"/></g></g></svg>